<svg xmlns="http://www.w3.org/2000/svg" viewBox="0 0 620 620"><defs><radialGradient id="radial-gradient" cx="93.235" cy="1234.928" r="3.3" gradientTransform="scale(182.354 -182.354) rotate(-47.499 -1357.153 722.19)" gradientUnits="userSpaceOnUse"><stop offset=".273" stop-color="#66bcea"/><stop offset=".566" stop-color="#f3f7fc"/><stop offset=".745" stop-color="#d3e199"/><stop offset="1" stop-color="#5771b4"/></radialGradient><style>.cls-1{fill:#312f30}</style></defs><g id="ALL_logo_s" data-name="ALL logo's"><circle class="cls-1" cx="310" cy="310" r="297"/><circle class="cls-1" cx="310" cy="310" r="297"/><g id="Charge_Icon" data-name="Charge Icon"><path d="M231.578 377.65h156.844a17.514 17.514 0 0 1 17.514 17.515 17.514 17.514 0 0 1-17.514 17.514H231.578a17.514 17.514 0 0 1-17.514-17.514 17.514 17.514 0 0 1 17.514-17.514Z" style="opacity:.5;isolation:isolate;fill:#fff"/><path d="M231.578 320.874h156.844a17.514 17.514 0 0 1 17.514 17.514 17.514 17.514 0 0 1-17.514 17.514H231.578a17.514 17.514 0 0 1-17.514-17.514 17.514 17.514 0 0 1 17.514-17.514Z" style="opacity:.7;isolation:isolate;fill:#fff"/><path d="M231.578 264.098h156.844a17.514 17.514 0 0 1 17.514 17.514 17.514 17.514 0 0 1-17.514 17.514H231.578a17.514 17.514 0 0 1-17.514-17.514 17.514 17.514 0 0 1 17.514-17.514Zm0-56.777h156.844a17.514 17.514 0 0 1 17.514 17.514 17.514 17.514 0 0 1-17.514 17.515H231.578a17.514 17.514 0 0 1-17.514-17.514 17.514 17.514 0 0 1 17.514-17.515Z" style="fill:#fff"/></g><circle cx="310" cy="310" r="254.1" style="stroke-width:19.8px;stroke:url(#radial-gradient);fill:none"/></g><circle cx="310" cy="310" r="297" style="stroke:#fff;stroke-miterlimit:10;stroke-width:7px;fill:none" id="WHITE_RING_FOR_BLACK_BG_copy" data-name="WHITE RING FOR BLACK BG copy"/></svg>