<svg xmlns="http://www.w3.org/2000/svg" xmlns:xlink="http://www.w3.org/1999/xlink" version="1.1" xml:space="preserve" viewBox="175.19 163.6 679.64 172.8"><desc>Created with Fabric.js 4.6.0</desc><defs></defs><g transform="matrix(3.6 0 0 3.6 250 250)" id="-gSLWvDjIXWQeL9r_Pvod"><g style="" vector-effect="non-scaling-stroke">		<g transform="matrix(1 0 0 1 0.03 0.03)" id="UoCdKms7P9dn-TnmhpmRF" clip-path="url(#CLIPPATH_184)"><clipPath id="CLIPPATH_184">	<rect transform="matrix(1 0 0 1 73.61 -0.03)" id="clip0_344_943" x="-94.37" y="-24" rx="0" ry="0" width="188.74" height="48"></rect></clipPath><path style="stroke: none; stroke-width: 1; stroke-dasharray: none; stroke-linecap: butt; stroke-dashoffset: 0; stroke-linejoin: miter; stroke-miterlimit: 4; fill: rgb(255,255,255); fill-rule: nonzero; opacity: 1;" vector-effect="non-scaling-stroke" transform=" translate(-20.76, -24.03)" d="M 36.6401 14.79 L 36.6401 33.1797 L 20.7401 42.3799 L 20.6501 42.3799 L 20.5801 42.3799 L 4.87012 33.23 L 4.87012 14.8398 L 20.6101 5.67969 L 36.6401 14.79 Z" stroke-linecap="round"></path></g>		<g transform="matrix(1 0 0 1 -0.01 -2.78)" id="m35X8BEb80UeMphmfwWh5" clip-path="url(#CLIPPATH_185)"><clipPath id="CLIPPATH_185">	<rect transform="matrix(1 0 0 1 73.65 2.78)" id="clip0_344_943" x="-94.37" y="-24" rx="0" ry="0" width="188.74" height="48"></rect></clipPath><path style="stroke: none; stroke-width: 1; stroke-dasharray: none; stroke-linecap: butt; stroke-dashoffset: 0; stroke-linejoin: miter; stroke-miterlimit: 4; fill: rgb(4,26,58); fill-rule: nonzero; opacity: 1;" vector-effect="non-scaling-stroke" transform=" translate(-20.72, -21.22)" d="M 26.1098 31.3799 L 35.1098 31.3799 L 33.6299 29.2998 L 27.3799 20.4697 L 20.7298 11.0698 L 14.0699 20.4697 L 7.81985 29.2998 L 6.33984 31.3799 L 15.3398 31.3799 L 13.5098 28.7397 L 11.4299 28.7397 L 13.8499 25.3198 L 18.1398 31.3799 L 23.2498 31.3799 L 27.5398 25.3198 L 29.9599 28.7397 L 27.8799 28.7397 L 26.1098 31.3799 Z M 21.9498 28.7397 L 19.5699 28.7397 L 15.5699 23.0298 L 20.7999 15.6396 L 26.0199 23.0298 L 21.9498 28.7397 Z" stroke-linecap="round"></path></g>		<g transform="matrix(1 0 0 1 0 0)" id="5fnOGaGHD6kU2cwRKeVvb" clip-path="url(#CLIPPATH_186)"><clipPath id="CLIPPATH_186">	<rect transform="matrix(1 0 0 1 73.64 0)" id="clip0_344_943" x="-94.37" y="-24" rx="0" ry="0" width="188.74" height="48"></rect></clipPath><path style="stroke: none; stroke-width: 1; stroke-dasharray: none; stroke-linecap: butt; stroke-dashoffset: 0; stroke-linejoin: miter; stroke-miterlimit: 4; fill: rgb(255,255,255); fill-rule: nonzero; opacity: 1;" vector-effect="non-scaling-stroke" transform=" translate(-20.73, -24)" d="M 39.4902 24.71 L 39.4902 34.8301 L 31.4902 39.46 L 32.4902 41.1997 L 41.4902 36 L 41.4902 24.71 L 39.4902 24.71 Z M 9.9502 6.18994 L -0.0498047 11.98 L -0.0498047 22.6899 L 1.9502 22.6899 L 1.9502 13.1396 L 10.8902 7.92969 L 9.9502 6.18994 Z M 2.0202 34.8301 L 2.0202 24.71 L 0.0202026 24.71 L 0.0202026 35.9897 L 9.7202 41.6396 L 10.7202 39.8896 L 2.0202 34.8301 Z M 29.7402 40.4697 L 20.7402 45.6997 L 12.5102 40.9097 L 11.5102 42.6597 L 20.8202 48 L 30.8202 42.2197 L 29.7402 40.4697 Z M 32.2302 6.65967 L 31.2302 8.40967 L 39.5002 13.1396 L 39.5002 22.6899 L 41.5002 22.6899 L 41.5002 11.9697 L 32.2302 6.65967 Z M 20.5702 0 L 11.6902 5.16992 L 12.6902 6.91992 L 20.5702 2.33008 L 29.4502 7.40967 L 30.4502 5.65967 L 20.5702 0 Z" stroke-linecap="round"></path></g>		<g transform="matrix(1 0 0 1 -0.15 -19.77)" id="iJr7xvb33OmH2eVHnJCnV" clip-path="url(#CLIPPATH_187)"><clipPath id="CLIPPATH_187">	<rect transform="matrix(1 0 0 1 73.79 19.77)" id="clip0_344_943" x="-94.37" y="-24" rx="0" ry="0" width="188.74" height="48"></rect></clipPath><path style="stroke: none; stroke-width: 1; stroke-dasharray: none; stroke-linecap: butt; stroke-dashoffset: 0; stroke-linejoin: miter; stroke-miterlimit: 4; fill: rgb(255,255,255); fill-rule: nonzero; opacity: 1;" vector-effect="non-scaling-stroke" transform=" translate(-20.58, -4.23)" d="M 21.5903 1.78003 L 19.5703 1.78003 L 19.5703 6.67003 L 21.5903 6.67003 L 21.5903 1.78003 Z" stroke-linecap="round"></path></g>		<g transform="matrix(1 0 0 1 -0.03 20.05)" id="bDzLvzcuPYgvNtcmhahu0" clip-path="url(#CLIPPATH_188)"><clipPath id="CLIPPATH_188">	<rect transform="matrix(1 0 0 1 73.67 -20.05)" id="clip0_344_943" x="-94.37" y="-24" rx="0" ry="0" width="188.74" height="48"></rect></clipPath><path style="stroke: none; stroke-width: 1; stroke-dasharray: none; stroke-linecap: butt; stroke-dashoffset: 0; stroke-linejoin: miter; stroke-miterlimit: 4; fill: rgb(255,255,255); fill-rule: nonzero; opacity: 1;" vector-effect="non-scaling-stroke" transform=" translate(-20.7, -44.05)" d="M 19.7226 41.6925 L 19.6572 46.3721 L 21.677 46.4003 L 21.7424 41.7207 L 19.7226 41.6925 Z" stroke-linecap="round"></path></g>		<g transform="matrix(1 0 0 1 -17.24 -9.45)" id="EI-yCUuU6_SktFKOwPYdi" clip-path="url(#CLIPPATH_189)"><clipPath id="CLIPPATH_189">	<rect transform="matrix(1 0 0 1 90.88 9.45)" id="clip0_344_943" x="-94.37" y="-24" rx="0" ry="0" width="188.74" height="48"></rect></clipPath><path style="stroke: none; stroke-width: 1; stroke-dasharray: none; stroke-linecap: butt; stroke-dashoffset: 0; stroke-linejoin: miter; stroke-miterlimit: 4; fill: rgb(255,255,255); fill-rule: nonzero; opacity: 1;" vector-effect="non-scaling-stroke" transform=" translate(-3.49, -14.55)" d="M 2.12731 12.5947 L 1.11426 14.3423 L 4.86043 16.5139 L 5.87348 14.7663 L 2.12731 12.5947 Z" stroke-linecap="round"></path></g>		<g transform="matrix(1 0 0 1 17.24 10.3)" id="Umu0DyMjJw6LNsKEckzQL" clip-path="url(#CLIPPATH_190)"><clipPath id="CLIPPATH_190">	<rect transform="matrix(1 0 0 1 56.4 -10.3)" id="clip0_344_943" x="-94.37" y="-24" rx="0" ry="0" width="188.74" height="48"></rect></clipPath><path style="stroke: none; stroke-width: 1; stroke-dasharray: none; stroke-linecap: butt; stroke-dashoffset: 0; stroke-linejoin: miter; stroke-miterlimit: 4; fill: rgb(255,255,255); fill-rule: nonzero; opacity: 1;" vector-effect="non-scaling-stroke" transform=" translate(-37.97, -34.3)" d="M 35.9321 32.0377 L 34.9648 33.811 L 40.0128 36.5644 L 40.98 34.791 L 35.9321 32.0377 Z" stroke-linecap="round"></path></g>		<g transform="matrix(1 0 0 1 16.42 -9.49)" id="pzLSzVPS3eu8Z155S04W3" clip-path="url(#CLIPPATH_191)"><clipPath id="CLIPPATH_191">	<rect transform="matrix(1 0 0 1 57.22 9.49)" id="clip0_344_943" x="-94.37" y="-24" rx="0" ry="0" width="188.74" height="48"></rect></clipPath><path style="stroke: none; stroke-width: 1; stroke-dasharray: none; stroke-linecap: butt; stroke-dashoffset: 0; stroke-linejoin: miter; stroke-miterlimit: 4; fill: rgb(255,255,255); fill-rule: nonzero; opacity: 1;" vector-effect="non-scaling-stroke" transform=" translate(-37.15, -14.51)" d="M 38.8957 12.3329 L 34.3887 14.9465 L 35.402 16.694 L 39.909 14.0803 L 38.8957 12.3329 Z" stroke-linecap="round"></path></g></g></g></svg>