<svg width="40" height="35" fill="none" xmlns="http://www.w3.org/2000/svg"><path d="M17.475 12.647c-.682-.97-1.67-1.799-3.228-2.319.735 1.677-.059 2.9-1.258 4.746-.413.635-.882 1.357-1.335 2.205l3.502 6.085 3.804-7.39c-.373-1.16-.788-2.34-1.484-3.327Zm2.405.834c2.358-5.334 6.469-5.377 11.289-5.428.783-.009 1.587-.017 2.427-.054l3.463-6.162-34.141-.1 3.371 6.15c.429.015.837.028 1.243.04 2.266.068 4.473.134 6.762.61l.064.013c2.2.631 3.574 1.758 4.52 3.102a10.06 10.06 0 0 1 1.002 1.83Zm7.09 1.684c-1.205-1.987-2.042-3.368-1.542-4.752-2.01.704-3.62 2.222-4.615 5.533l3.952 7.12 3.458-5.74c-.432-.807-.867-1.522-1.253-2.16Zm-1.482 10.04-4.712 8.488L20.05 35l-.763-1.283-4.032-6.776-.013.024-.786-1.366-4.527-7.864-.233-.406.21-.418c.57-1.136 1.146-2.022 1.642-2.786 1.072-1.65 1.689-2.599.39-4.213-1.473-.167-2.949-.212-4.453-.257-.593-.018-1.19-.035-1.749-.059l-.486-.02-.234-.427L.705 1.285 0 0l1.459.004L38.53.112 40 .117l-.723 1.287-4.418 7.863-.231.411-.47.027c-.994.055-2 .066-2.976.076-1.107.012-2.172.023-3.176.115-1.46 1.248-.778 2.377.433 4.367.469.774 1.002 1.653 1.535 2.696l.22.428-.25.416-4.456 7.402Zm-9.304-.07 3.812 6.41 3.755-6.761-3.835-6.906-3.732 7.257Z" fill="url(#a)"/><defs><linearGradient id="a" x1="20" y1="7.656" x2="20" y2="35" gradientUnits="userSpaceOnUse"><stop stop-color="#28E0B2"/><stop offset="1" stop-color="#67FFD9"/><stop offset="1" stop-color="#16866A"/></linearGradient></defs></svg>