<svg xmlns="http://www.w3.org/2000/svg" xmlns:xlink="http://www.w3.org/1999/xlink" version="1.1" xml:space="preserve" viewBox="91.34 0.51 230.76 36">
<desc>Created with Fabric.js 4.6.0</desc>
<defs>
</defs>
<g transform="matrix(1 0 0 1 115.5 18.5)" id="A0yT16nxWC6I7d08HjLUx" clip-path="url(#CLIPPATH_35)">
<radialGradient id="SVGID_0" gradientUnits="userSpaceOnUse" gradientTransform="matrix(0 54.1 -54.1 0 -0.12 -17.99)" cx="0" cy="0" r="1" fx="0" fy="0">
<stop offset="0%" style="stop-color:rgb(110,224,255);stop-opacity: 1"/>
<stop offset="100%" style="stop-color:rgb(18,146,245);stop-opacity: 1"/>
</radialGradient>
<clipPath id="CLIPPATH_35">
	<rect transform="matrix(1 0 0 1 91.22 0.01)" id="clip0_5_27" x="-115.38" y="-18" rx="0" ry="0" width="230.76" height="36"/>
</clipPath>
<path style="stroke: none; stroke-width: 1; stroke-dasharray: none; stroke-linecap: butt; stroke-dashoffset: 0; stroke-linejoin: miter; stroke-miterlimit: 4; fill: url(#SVGID_0); fill-rule: nonzero; opacity: 1;" vector-effect="non-scaling-stroke" transform=" translate(0, 0)" d="M -10.13764 -6.15735 L -3.8193399999999995 -12.462399999999999 L 3.8882600000000007 -12.462399999999999 L 10.20666 -6.157349999999999 L 0.0010599999999989507 4.0081500000000005 z M 17.50016 -6.22415 L 10.927960000000002 0.34795 L 6.199260000000002 0.34795 L 12.771460000000001 -6.22415 L 6.092360000000001 -12.90321 L 10.83446 -12.90321 z M 9.48536 1.79065 L -0.0389400000000002 11.328349999999999 L -9.46974 1.7372499999999977 L -4.74104 1.7372499999999977 L 0.06786000000000048 6.546149999999998 L 4.863460000000001 1.7372499999999977 z M -12.80924 -6.22415 L -6.237140000000001 0.34795 L -10.92584 0.34795 L -17.48461 -6.22415 L -10.80554 -12.90321 L -6.076840000000001 -12.90321 z M 1.21666 17.47305 L 23.63156 -4.888349999999999 C 23.80036 -5.053749999999999 23.93446 -5.251249999999999 24.02606 -5.469149999999999 C 24.11766 -5.687049999999999 24.16476 -5.921049999999999 24.16476 -6.157349999999999 C 24.16476 -6.393749999999999 24.11766 -6.627749999999999 24.02606 -6.845649999999999 C 23.93446 -7.063549999999999 23.80036 -7.260949999999999 23.63156 -7.426449999999999 L 13.586260000000001 -17.47167 C 13.411560000000001 -17.645889999999998 13.202660000000002 -17.7821 12.972760000000001 -17.87175 C 12.74296 -17.961399999999998 12.496960000000001 -18.00256 12.25046 -17.992639999999998 L -12.31504 -17.992639999999998 C -12.55044 -17.993509999999997 -12.78364 -17.94794 -13.00144 -17.858549999999997 C -13.219140000000001 -17.769159999999996 -13.41714 -17.63769 -13.58404 -17.471669999999996 L -23.64268 -7.4264499999999956 C -23.97713 -7.088749999999996 -24.164759999999998 -6.6326499999999955 -24.164759999999998 -6.157349999999996 C -24.164759999999998 -5.682149999999996 -23.97713 -5.226049999999995 -23.64268 -4.8883499999999955 L -1.2679399999999994 17.473050000000004 C -1.1014399999999993 17.639650000000003 -0.9035399999999993 17.771550000000005 -0.6857399999999994 17.860950000000003 C -0.46783999999999937 17.950350000000004 -0.23443999999999937 17.99565 0.001060000000000616 17.99405 C 0.4576600000000006 17.98055 0.8920600000000006 17.79435 1.2166600000000005 17.47305 z M -11.68724 -14.69319 L 11.67606 -14.69319 L 20.18516 -6.19745 L 0.0010599999999989507 14.01325 L -20.15623 -6.157350000000001 z" stroke-linecap="round"/>
</g>
</svg>